HIERARCHY
ROOT Hips
{
 OFFSET 0.000000 0.000000 0.000000
 CHANNELS 6 Xposition Yposition Zposition Yrotation Xrotation Zrotation
 JOINT Chest
 {
  OFFSET 0.000000 9.857222 0.000240
  CHANNELS 3 Yrotation Xrotation Zrotation
  JOINT Chest2
  {
   OFFSET 0.000000 10.876940 -0.000436
   CHANNELS 3 Yrotation Xrotation Zrotation
   JOINT Chest3
   {
    OFFSET 0.000000 9.827798 0.000000
    CHANNELS 3 Yrotation Xrotation Zrotation
    JOINT Chest4
    {
     OFFSET 0.000000 9.827798 0.000000
     CHANNELS 3 Yrotation Xrotation Zrotation
     JOINT Neck
     {
      OFFSET 0.000000 13.831992 0.000000
      CHANNELS 3 Yrotation Xrotation Zrotation
      JOINT Head
      {
       OFFSET 0.000000 9.147643 -0.001036
       CHANNELS 3 Yrotation Xrotation Zrotation
       End Site
       {
        OFFSET 0.000000 17.515799 -0.000541
       }
      }
     }
     JOINT RightCollar
     {
      OFFSET -3.001579 7.717577 0.000000
      CHANNELS 3 Yrotation Xrotation Zrotation
      JOINT RightShoulder
      {
       OFFSET -14.002642 0.000000 0.000000
       CHANNELS 3 Yrotation Xrotation Zrotation
       JOINT RightElbow
       {
        OFFSET -30.053852 0.000000 0.000000
        CHANNELS 3 Yrotation Xrotation Zrotation
        JOINT RightWrist
        {
         OFFSET -24.564923 0.000000 -0.000000
         CHANNELS 3 Yrotation Xrotation Zrotation
         End Site
         {
          OFFSET -18.334355 0.000000 0.000000
         }
        }
       }
      }
     }
     JOINT LeftCollar
     {
      OFFSET 3.001579 7.717577 0.000000
      CHANNELS 3 Yrotation Xrotation Zrotation
      JOINT LeftShoulder
      {
       OFFSET 14.002642 0.000000 0.000000
       CHANNELS 3 Yrotation Xrotation Zrotation
       JOINT LeftElbow
       {
        OFFSET 30.053852 0.000000 0.000000
        CHANNELS 3 Yrotation Xrotation Zrotation
        JOINT LeftWrist
        {
         OFFSET 24.564923 0.000000 -0.000000
         CHANNELS 3 Yrotation Xrotation Zrotation
         End Site
         {
          OFFSET 18.334355 0.000000 0.000000
         }
        }
       }
      }
     }
    }
   }
  }
 }
 JOINT RightHip
 {
  OFFSET -8.003235 -0.001175 -0.000120
  CHANNELS 3 Yrotation Xrotation Zrotation
  JOINT RightKnee
  {
   OFFSET 0.000000 -41.759727 0.000113
   CHANNELS 3 Yrotation Xrotation Zrotation
   JOINT RightAnkle
   {
    OFFSET 0.000000 -40.728748 0.000159
    CHANNELS 3 Yrotation Xrotation Zrotation
    JOINT RightToe
    {
     OFFSET 0.000000 -6.515296 14.732841
     CHANNELS 3 Yrotation Xrotation Zrotation
     End Site
     {
      OFFSET 0.000000 -1.502839 6.412115
     }
    }
   }
  }
 }
 JOINT LeftHip
 {
  OFFSET 8.003235 -0.001175 -0.000120
  CHANNELS 3 Yrotation Xrotation Zrotation
  JOINT LeftKnee
  {
   OFFSET 0.000000 -41.759727 0.000113
   CHANNELS 3 Yrotation Xrotation Zrotation
   JOINT LeftAnkle
   {
    OFFSET 0.000000 -40.728748 0.000159
    CHANNELS 3 Yrotation Xrotation Zrotation
    JOINT LeftToe
    {
     OFFSET 0.000000 -6.515296 14.732841
     CHANNELS 3 Yrotation Xrotation Zrotation
     End Site
     {
      OFFSET 0.000000 -1.502839 6.412115
     }
    }
   }
  }
 }
}
MOTION
Frames: 7
Frame Time: 0.016667
0.000000 88.822259 0.000000 0.000000 -5.826342 0.000000 0.000000 11.116423 0.000000 0.000000 -5.290081 0.000000 0.000000 0.000000 0.000000 0.000000 0.000000 0.000000 0.000000 12.665069 0.000000 0.000000 0.575450 0.000000 0.000000 0.000000 0.000000 0.000000 0.000000 0.000000 2.337306 0.000000 0.000000 -2.337306 0.000000 0.000000 0.000000 0.000000 0.000000 0.000000 0.000000 0.000000 -2.337306 0.000000 0.000000 2.337306 0.000000 0.000000 0.000000 8.578828 0.000000 0.000000 1.905768 0.000000 0.000000 -4.658254 0.000000 0.000000 0.000000 0.000000 0.000000 8.578828 0.000000 0.000000 1.905768 0.000000 0.000000 -4.658254 0.000000 0.000000 0.000000 0.000000
5.249337 90.329390 18.346035 -33.672473 -5.203198 0.661273 -0.606018 2.604331 -0.583116 -0.195380 1.089708 -0.137937 -0.195380 1.089708 -0.137937 -0.146285 0.817325 -0.103102 -6.110166 18.338974 2.448681 -12.022050 -1.641222 6.484754 6.591606 0.020341 6.878791 47.780148 -0.508820 87.652468 15.683791 6.549214 3.883058 -3.310439 3.900229 0.841820 -13.804701 7.103981 -11.305861 -24.626287 12.756886 -58.602801 -24.342595 -28.276766 -12.206455 3.969645 7.473016 2.670886 -6.157375 13.465812 -9.503187 -0.012242 -5.978923 5.332141 -1.876344 -2.875652 3.232516 -0.536405 0.169616 -0.263509 1.814263 5.156637 2.101713 3.691464 4.106716 0.903095 2.171161 -3.307651 -2.997341 0.067720 -0.001172 0.019716
5.221692 90.328286 18.352336 -33.690531 -5.194699 0.654261 -0.608315 2.571257 -0.588818 -0.194174 1.073652 -0.138602 -0.194174 1.073652 -0.138602 -0.145383 0.805283 -0.103607 -6.113009 18.370539 2.441470 -12.022089 -1.583431 6.469038 6.644367 0.013962 6.879662 48.084444 -0.586474 87.730864 15.775859 6.472416 3.832328 -3.253305 3.857449 0.982895 -13.847661 7.097037 -11.291309 -24.589049 12.780703 -58.580203 -24.517880 -28.416855 -12.073334 3.962120 7.416016 2.704246 -6.179277 13.473556 -9.487653 0.026287 -5.995659 5.324749 -1.866297 -2.876863 3.234276 -0.540759 0.167914 -0.266922 1.764828 5.167373 2.112832 3.752472 4.105018 0.908854 2.184249 -3.319955 -3.011766 0.068199 -0.000682 0.019691
5.197744 90.328841 18.353560 -33.708003 -5.195154 0.638106 -0.605836 2.536142 -0.583076 -0.193345 1.059662 -0.139252 -0.193345 1.059662 -0.139252 -0.144764 0.794791 -0.104101 -6.114316 18.395170 2.436098 -12.020537 -1.538403 6.456954 6.726060 0.058796 6.896672 48.321806 -0.684758 87.673226 15.876958 6.419665 3.891205 -3.220469 3.796542 1.098907 -13.920019 7.097861 -11.295078 -24.514614 12.791245 -58.546291 -24.699805 -28.601073 -11.940592 3.959027 7.373118 2.721960 -6.189619 13.483885 -9.466569 0.053873 -6.001294 5.326788 -1.912046 -2.871606 3.225517 -0.524022 0.161079 -0.260771 1.720255 5.176780 2.139477 3.803661 4.110021 0.913276 2.194369 -3.325789 -3.028465 0.065716 -0.003060 0.018506
5.180758 90.330748 18.350931 -33.736176 -5.194594 0.621539 -0.595252 2.509178 -0.580362 -0.188941 1.049454 -0.139360 -0.188941 1.049454 -0.139360 -0.141462 0.787133 -0.104192 -6.114882 18.403694 2.439148 -12.021784 -1.522206 6.461791 6.814916 0.108205 6.926527 48.521295 -0.794652 87.541747 15.954586 6.395460 3.974475 -3.180124 3.733792 1.222447 -14.023780 7.092446 -11.316197 -24.410859 12.781888 -58.462975 -24.890158 -28.785629 -11.834351 3.962463 7.328826 2.729668 -6.175429 13.483424 -9.438079 0.062458 -5.997386 5.326591 -1.896011 -2.868242 3.218284 -0.516598 0.156802 -0.258218 1.691906 5.179076 2.163821 3.844722 4.121260 0.914870 2.201208 -3.331542 -3.038415 0.064116 -0.006175 0.018002
5.169838 90.332506 18.342054 -33.770246 -5.183263 0.600221 -0.587676 2.478814 -0.574331 -0.183801 1.034624 -0.137079 -0.183801 1.034624 -0.137079 -0.137615 0.776009 -0.102495 -6.113126 18.407132 2.446970 -12.020765 -1.515081 6.475175 6.902855 0.189223 6.968747 48.732079 -0.936168 87.347153 15.994292 6.409541 4.105877 -3.133894 3.679489 1.354519 -14.118790 7.165524 -11.363123 -24.390623 12.706716 -58.325804 -25.070311 -29.020958 -11.727908 3.989900 7.281663 2.714719 -6.141313 13.463284 -9.405258 0.063050 -5.980491 5.328214 -1.885793 -2.869335 3.213164 -0.510246 0.155799 -0.254724 1.672748 5.157406 2.197247 3.888435 4.147397 0.912244 2.201741 -3.340806 -3.047208 0.062661 -0.006922 0.017857
5.166342 90.334205 18.326134 -33.802839 -5.172102 0.581120 -0.580950 2.455474 -0.572880 -0.179627 1.023174 -0.134263 -0.179627 1.023174 -0.134263 -0.134492 0.767420 -0.100394 -6.111295 18.399365 2.463132 -12.023294 -1.527660 6.505007 7.005593 0.332370 7.048253 48.937922 -1.094469 86.966990 16.051516 6.502863 4.362715 -3.079947 3.633929 1.560669 -14.230504 7.283596 -11.449377 -24.447070 12.608111 -58.094490 -25.252403 -29.302928 -11.618688 4.028322 7.227513 2.611881 -6.096665 13.430321 -9.378690 0.057601 -5.949762 5.336606 -1.888598 -2.873911 3.214408 -0.518629 0.158950 -0.257942 1.657958 5.124085 2.225894 3.945738 4.184718 0.908288 2.201273 -3.349959 -3.051564 0.063415 -0.006493 0.018552
